HIERARCHY
ROOT Hips
{
 OFFSET 0.000000 0.000000 0.000000
 CHANNELS 6 Xposition Yposition Zposition Yrotation Xrotation Zrotation
 JOINT Chest
 {
  OFFSET 0.000000 9.585900 0.002600
  CHANNELS 3 Yrotation Xrotation Zrotation
  JOINT Chest2
  {
   OFFSET 0.000000 9.601200 -0.005300
   CHANNELS 3 Yrotation Xrotation Zrotation
   JOINT Chest3
   {
    OFFSET 0.000000 9.561800 0.000000
    CHANNELS 3 Yrotation Xrotation Zrotation
    JOINT Chest4
    {
     OFFSET 0.000000 9.552100 0.000000
     CHANNELS 3 Yrotation Xrotation Zrotation
     JOINT Neck
     {
      OFFSET 0.000000 14.453000 0.000000
      CHANNELS 3 Yrotation Xrotation Zrotation
      JOINT Head
      {
       OFFSET 0.000000 8.936500 -0.011300
       CHANNELS 3 Yrotation Xrotation Zrotation
       End Site
       {
        OFFSET 0.000000 17.073600 -0.006000
       }
      }
     }
     JOINT RightCollar
     {
      OFFSET -2.921100 9.558500 0.000000
      CHANNELS 3 Yrotation Xrotation Zrotation
      JOINT RightShoulder
      {
       OFFSET -13.519700 0.000000 0.000000
       CHANNELS 3 Yrotation Xrotation Zrotation
       JOINT RightElbow
       {
        OFFSET 0.000000 -29.696600 0.000000
        CHANNELS 3 Yrotation Xrotation Zrotation
        JOINT RightWrist
        {
         OFFSET 0.000000 -24.004700 0.000000
         CHANNELS 3 Yrotation Xrotation Zrotation
         End Site
         {
          OFFSET 0.000000 -17.728500 0.000000
         }
        }
       }
      }
     }
     JOINT LeftCollar
     {
      OFFSET 2.921100 9.558500 0.000000
      CHANNELS 3 Yrotation Xrotation Zrotation
      JOINT LeftShoulder
      {
       OFFSET 13.519700 0.000000 0.000000
       CHANNELS 3 Yrotation Xrotation Zrotation
       JOINT LeftElbow
       {
        OFFSET 0.000000 -29.696600 0.000000
        CHANNELS 3 Yrotation Xrotation Zrotation
        JOINT LeftWrist
        {
         OFFSET 0.000000 -24.004700 0.000000
         CHANNELS 3 Yrotation Xrotation Zrotation
         End Site
         {
          OFFSET 0.000000 -17.728500 0.000000
         }
        }
       }
      }
     }
    }
   }
  }
 }
 JOINT RightHip
 {
  OFFSET -7.771700 -0.012900 -0.001300
  CHANNELS 3 Yrotation Xrotation Zrotation
  JOINT RightKnee
  {
   OFFSET 0.000000 -40.869800 0.001200
   CHANNELS 3 Yrotation Xrotation Zrotation
   JOINT RightAnkle
   {
    OFFSET 0.000000 -39.717900 0.002100
    CHANNELS 3 Yrotation Xrotation Zrotation
    JOINT RightToe
    {
     OFFSET 0.000000 -4.965400 11.033500
     CHANNELS 3 Yrotation Xrotation Zrotation
     End Site
     {
      OFFSET 0.000000 -1.423100 5.872300
     }
    }
   }
  }
 }
 JOINT LeftHip
 {
  OFFSET 7.771700 -0.012900 -0.001300
  CHANNELS 3 Yrotation Xrotation Zrotation
  JOINT LeftKnee
  {
   OFFSET 0.000000 -40.869800 0.001200
   CHANNELS 3 Yrotation Xrotation Zrotation
   JOINT LeftAnkle
   {
    OFFSET 0.000000 -39.717900 0.002100
    CHANNELS 3 Yrotation Xrotation Zrotation
    JOINT LeftToe
    {
     OFFSET 0.000000 -4.965400 11.033500
     CHANNELS 3 Yrotation Xrotation Zrotation
     End Site
     {
      OFFSET 0.000000 -1.423100 5.872300
     }
    }
   }
  }
 }
}
MOTION
Frames: 15
Frame Time: 0.008333
0.000000 85.388000 0.000000 0.000000 -5.767877 0.000000 0.000000 11.653817 0.000000 0.000000 -5.885947 0.000000 0.000000 -0.000000 0.000000 0.000000 -0.000000 0.000000 0.000000 12.528835 0.000000 0.000000 0.711642 0.000000 0.000000 -0.000000 0.000000 0.000000 0.000000 -90.000000 0.000000 -2.309062 0.000000 0.000000 2.309062 0.000000 0.000000 -0.000000 0.000000 0.000000 -0.000000 90.000000 0.000000 -2.309062 0.000000 0.000000 2.309062 0.000000 0.000000 8.520406 0.000000 0.000000 1.905762 0.000000 -0.000000 -4.658285 0.000000 0.000000 -0.000000 0.000000 0.000000 8.520406 0.000000 0.000000 1.905762 0.000000 -0.000000 -4.658285 0.000000 0.000000 -0.000000 0.000000
-138.485101 51.681474 -59.968161 177.700710 -17.038660 0.035126 -1.676737 11.417704 0.063598 -0.114407 0.787444 0.053169 -0.197343 1.352376 0.092254 -1.487852 10.444835 0.599220 -1.959102 19.047677 -0.769149 -1.931899 -5.625635 -0.373489 5.206101 15.739258 11.494702 29.833279 -2.585671 -29.406858 151.058061 -75.260560 175.868426 -1.201129 2.519268 -9.108784 -4.392160 14.330508 -15.395118 -27.501663 2.146915 30.559493 -97.411138 -66.651881 138.714390 11.379231 3.238614 11.003132 -14.057539 -65.222865 7.670164 -84.403220 83.449968 -92.783657 -4.718627 -7.881300 7.483039 0.267529 -0.736440 0.117054 14.312193 -63.354355 -11.485941 39.561600 85.714616 45.297237 -2.412262 -13.338792 1.220100 0.149105 0.465659 0.062693
-138.485072 51.681007 -59.968081 177.706535 -17.044267 0.035741 -1.679949 11.418879 0.058473 -0.115949 0.789736 0.054679 -0.197669 1.352527 0.093187 -1.490507 10.445636 0.597785 -1.972274 19.037645 -0.774738 -1.948570 -5.634155 -0.372054 5.208875 15.738333 11.493737 29.834000 -2.583364 -29.402222 150.995899 -75.260427 175.930221 -1.220643 2.545487 -9.060095 -4.388766 14.327959 -15.393563 -27.489749 2.148166 30.557138 -97.392074 -66.662754 138.690533 11.383881 3.237973 11.029802 -14.055998 -65.218343 7.663106 -84.419657 83.450401 -92.800598 -4.717884 -7.885333 7.486390 0.264130 -0.733597 0.113894 14.310488 -63.347534 -11.490190 39.564143 85.711199 45.301778 -2.412427 -13.341466 1.219184 0.149552 0.469086 0.063001
-138.484731 51.680237 -59.967177 177.715514 -17.047077 0.033697 -1.685355 11.413465 0.060379 -0.116148 0.786734 0.055879 -0.200211 1.361594 0.090382 -1.494708 10.446411 0.595831 -2.001738 19.018692 -0.783380 -1.949800 -5.633019 -0.374330 5.209967 15.737604 11.492232 29.838099 -2.579585 -29.401341 150.913402 -75.251727 176.009626 -1.241643 2.579000 -9.007637 -4.383220 14.327339 -15.389977 -27.481677 2.144403 30.548066 -97.393208 -66.664579 138.683860 11.384909 3.244787 11.040123 -14.064608 -65.217883 7.665407 -84.446377 83.457921 -92.827708 -4.728627 -7.884584 7.487857 0.269521 -0.733564 0.113463 14.295477 -63.348318 -11.480581 39.559481 85.710985 45.291672 -2.417987 -13.335271 1.218426 0.153901 0.465229 0.066675
-138.485280 51.679432 -59.966326 177.719549 -17.052284 0.038140 -1.690055 11.415324 0.055248 -0.116317 0.784276 0.057848 -0.199524 1.355739 0.091890 -1.496678 10.450643 0.591026 -2.005919 19.022837 -0.784595 -1.970667 -5.644756 -0.375169 5.206049 15.745314 11.489530 29.843208 -2.579640 -29.400585 150.793079 -75.231890 176.122810 -1.261382 2.614071 -8.964581 -4.380735 14.331753 -15.390166 -27.479238 2.143542 30.540002 -97.390770 -66.660784 138.676386 11.389880 3.259970 11.047830 -14.050263 -65.217251 7.649084 -84.481553 83.465726 -92.861593 -4.742134 -7.884014 7.491420 0.278325 -0.733198 0.112241 14.300593 -63.341402 -11.490860 39.550638 85.707931 45.283676 -2.418150 -13.334702 1.215571 0.154670 0.466866 0.068790
-138.485600 51.678176 -59.964135 177.718311 -17.051219 0.041356 -1.689496 11.404183 0.057405 -0.117015 0.790025 0.054069 -0.198769 1.358341 0.091620 -1.500278 10.445728 0.590536 -2.021640 19.015651 -0.790723 -1.983452 -5.653065 -0.381030 5.205249 15.755973 11.487058 29.853646 -2.580518 -29.407199 150.626988 -75.200488 176.271443 -1.277916 2.660553 -8.916883 -4.373807 14.331849 -15.388921 -27.475000 2.135360 30.527151 -97.361117 -66.672017 138.633586 11.389012 3.255980 11.048957 -14.034895 -65.223746 7.637505 -84.501182 83.476873 -92.876352 -4.754435 -7.879604 7.491749 0.277151 -0.735017 0.113413 14.309393 -63.341887 -11.497719 39.542901 85.704483 45.275732 -2.422207 -13.335015 1.215773 0.156950 0.470025 0.069312
-138.486088 51.677038 -59.962531 177.719843 -17.055380 0.043026 -1.691114 11.403395 0.055245 -0.117773 0.793094 0.054059 -0.200255 1.356932 0.091554 -1.501814 10.445425 0.588651 -2.049563 18.994696 -0.804743 -1.987065 -5.656330 -0.385642 5.207297 15.768129 11.490236 29.854000 -2.586612 -29.418774 150.397130 -75.147001 176.492041 -1.308315 2.724187 -8.879052 -4.369124 14.332517 -15.385006 -27.477068 2.133967 30.521625 -97.337256 -66.693214 138.604034 11.380766 3.239162 11.051853 -14.027747 -65.222219 7.627964 -84.507765 83.482274 -92.880327 -4.754838 -7.884365 7.491459 0.287549 -0.730663 0.114782 14.311256 -63.338067 -11.499042 39.543033 85.700938 45.272503 -2.422317 -13.335023 1.217680 0.153020 0.472415 0.069686
-138.486823 51.676083 -59.961657 177.719528 -17.065084 0.044378 -1.690419 11.410021 0.053776 -0.118524 0.794127 0.054097 -0.200426 1.355387 0.091655 -1.503002 10.446926 0.588594 -2.054426 18.990544 -0.809523 -1.992711 -5.661139 -0.388371 5.208474 15.776209 11.491598 29.838607 -2.594118 -29.426056 150.075610 -75.064291 176.815642 -1.311132 2.815447 -8.803672 -4.367835 14.332136 -15.382529 -27.477075 2.135025 30.516163 -97.308167 -66.712578 138.580396 11.388132 3.240315 11.036607 -14.018291 -65.214487 7.617733 -84.506780 83.486414 -92.877291 -4.756371 -7.887358 7.492715 0.292851 -0.728489 0.115551 14.314890 -63.328410 -11.499630 39.516006 85.702421 45.243624 -2.418056 -13.336310 1.221212 0.148417 0.474407 0.069219
-138.488883 51.675055 -59.960858 177.721581 -17.075395 0.050056 -1.692297 11.416185 0.047259 -0.117127 0.790508 0.053907 -0.200534 1.355953 0.091418 -1.503154 10.448910 0.587356 -2.061381 18.988764 -0.812551 -1.998105 -5.665757 -0.391306 5.207701 15.789397 11.495869 29.814583 -2.607439 -29.436011 149.651327 -74.952250 177.246854 -1.292575 2.941843 -8.686247 -4.370146 14.334892 -15.377230 -27.475490 2.137632 30.509112 -97.289632 -66.725306 138.560582 11.394105 3.263694 11.018728 -14.006008 -65.210550 7.600700 -84.544802 83.487671 -92.915683 -4.757395 -7.886447 7.491462 0.297477 -0.732009 0.119279 14.327871 -63.316742 -11.515071 39.487415 85.703582 45.215514 -2.413888 -13.335813 1.224405 0.146263 0.474971 0.068458
-138.491433 51.673564 -59.958844 177.714489 -17.077969 0.057989 -1.684584 11.414542 0.043716 -0.117726 0.787217 0.058389 -0.201005 1.359446 0.086884 -1.507798 10.449058 0.586396 -2.067719 18.960797 -0.832631 -2.002037 -5.694265 -0.417057 5.212576 15.813017 11.499918 29.801023 -2.623803 -29.454546 149.101341 -74.807263 177.793384 -1.296012 3.104750 -8.566797 -4.364256 14.335365 -15.374916 -27.477641 2.143507 30.503459 -97.249536 -66.748974 138.514809 11.394851 3.249020 11.013525 -13.984944 -65.214264 7.585125 -84.540063 83.488159 -92.910881 -4.760542 -7.880151 7.494124 0.292358 -0.735607 0.119634 14.350634 -63.312995 -11.532092 39.458707 85.705305 45.186575 -2.412022 -13.335733 1.226427 0.143426 0.475374 0.068396
-138.493767 51.672032 -59.956978 177.711469 -17.081120 0.060399 -1.680965 11.410600 0.052874 -0.117544 0.790906 0.054142 -0.203451 1.359689 0.084604 -1.507324 10.449408 0.587372 -2.063773 18.943359 -0.845762 -1.997454 -5.714716 -0.435292 5.212518 15.838059 11.503252 29.788724 -2.628532 -29.471422 148.462685 -74.613555 178.424121 -1.292973 3.304050 -8.427152 -4.359444 14.334376 -15.377157 -27.483028 2.149731 30.500567 -97.234810 -66.756232 138.500718 11.397917 3.256857 11.004619 -13.976401 -65.213835 7.579685 -84.522029 83.486535 -92.895275 -4.755651 -7.879154 7.495510 0.283011 -0.736143 0.121909 14.359678 -63.310787 -11.536688 39.431377 85.707583 45.157391 -2.413414 -13.335928 1.227349 0.144047 0.476428 0.070439
-138.496658 51.670669 -59.955983 177.712614 -17.088938 0.062100 -1.681999 11.415665 0.057758 -0.117522 0.790998 0.054487 -0.201935 1.358475 0.083850 -1.504112 10.449823 0.603695 -2.062184 18.921777 -0.875986 -2.003821 -5.712760 -0.438951 5.206693 15.860447 11.495963 29.777002 -2.613826 -29.484591 147.782943 -74.362995 179.083116 -1.279715 3.536574 -8.267491 -4.364751 14.333593 -15.397215 -27.489876 2.156532 30.500064 -97.208388 -66.776692 138.475580 11.395419 3.243836 10.999615 -13.950776 -65.210219 7.554948 -84.530089 83.483942 -92.897316 -4.758136 -7.877925 7.494181 0.283429 -0.735400 0.125534 14.360778 -63.304364 -11.538954 39.435915 85.708055 45.160100 -2.417886 -13.334814 1.227434 0.145944 0.475305 0.071416
-138.499314 51.669335 -59.955268 177.707109 -17.097784 0.061521 -1.678168 11.421811 0.065839 -0.117273 0.791154 0.054942 -0.198652 1.359685 0.086232 -1.504744 10.449773 0.604334 -2.057960 18.909503 -0.889702 -1.956223 -5.772300 -0.482599 5.227877 15.904105 11.535308 29.751712 -2.601341 -29.533834 147.170652 -74.048463 179.672139 -1.262305 3.795255 -8.083440 -4.366463 14.333369 -15.405450 -27.480029 2.159652 30.504709 -97.208356 -66.797000 138.468010 11.393947 3.235223 10.992805 -13.943664 -65.202303 7.553859 -84.519240 83.482032 -92.888990 -4.751350 -7.880509 7.492385 0.287629 -0.732826 0.128222 14.359296 -63.297852 -11.533571 39.480065 85.708594 45.203556 -2.418447 -13.334765 1.228295 0.145334 0.474608 0.070700
-138.502581 51.667846 -59.954218 177.704110 -17.103628 0.061117 -1.677777 11.424121 0.072977 -0.115723 0.793220 0.051667 -0.200573 1.358309 0.089664 -1.502055 10.452007 0.600593 -2.015329 18.869905 -0.901947 -1.913935 -5.816785 -0.518617 5.230821 15.911548 11.540725 29.747363 -2.567031 -29.533125 146.687811 -73.671328 -179.877297 -1.253988 4.062332 -7.867132 -4.362468 14.333718 -15.406097 -27.472522 2.163440 30.509323 -97.196535 -66.819817 138.448370 11.392685 3.231861 10.983726 -13.939363 -65.198007 7.553645 -84.512959 83.479667 -92.885959 -4.747990 -7.883049 7.490511 0.286087 -0.728177 0.133032 14.358317 -63.293921 -11.531952 39.459152 85.711254 45.182385 -2.414719 -13.334049 1.228293 0.145131 0.474644 0.070595
-138.506562 51.666501 -59.953647 177.699801 -17.111627 0.063264 -1.675354 11.430146 0.075077 -0.114430 0.793625 0.051686 -0.204780 1.354942 0.104012 -1.495473 10.456418 0.598376 -1.966581 18.825566 -0.924717 -1.872413 -5.850173 -0.546641 5.244166 15.937718 11.564057 29.799758 -2.458171 -29.562308 146.359441 -73.198007 -179.686856 -1.268752 4.319016 -7.610425 -4.352967 14.337556 -15.408819 -27.474296 2.165678 30.503542 -97.154355 -66.838010 138.399555 11.403611 3.227459 10.963922 -13.928334 -65.195737 7.547312 -84.546532 83.478687 -92.921207 -4.750956 -7.879515 7.488953 0.281655 -0.731050 0.135731 14.361402 -63.286603 -11.533481 39.481697 85.711486 45.204200 -2.418483 -13.334594 1.229852 0.148216 0.475302 0.070774
